<svg version="1.1" xmlns="http://www.w3.org/2000/svg" viewBox="0 0 847.5090482415709 301.670598572533" width="847.5090482415709" height="301.670598572533">
  <!-- svg-source:excalidraw -->
  
  <defs>
    <style class="style-fonts">
      @font-face {
        font-family: "Virgil";
        src: url("https://excalidraw.com/Virgil.woff2");
      }
      @font-face {
        font-family: "Cascadia";
        src: url("https://excalidraw.com/Cascadia.woff2");
      }
      @font-face {
        font-family: "Assistant";
        src: url("https://excalidraw.com/Assistant-Regular.woff2");
      }
    </style>
    
  </defs>
  <rect x="0" y="0" width="847.5090482415709" height="301.670598572533" fill="#ffffff"></rect><g stroke-linecap="round" transform="translate(10 10) rotate(0 413.75452412078545 140.8352992862665)"><path d="M32 0 C222.09 -0.82, 411.64 -0.14, 795.51 0 M32 0 C209.03 1.92, 385.5 1.29, 795.51 0 M795.51 0 C815.55 -1.56, 828.56 12.37, 827.51 32 M795.51 0 C814.98 -0.92, 828.46 9.97, 827.51 32 M827.51 32 C827.45 102, 827.01 168.79, 827.51 249.67 M827.51 32 C826.97 81.03, 826.22 131.76, 827.51 249.67 M827.51 249.67 C828.28 271.71, 816.79 281.99, 795.51 281.67 M827.51 249.67 C827.36 273, 815.69 282.62, 795.51 281.67 M795.51 281.67 C622.63 280.59, 448.43 280.35, 32 281.67 M795.51 281.67 C547.29 284.24, 298.39 284.14, 32 281.67 M32 281.67 C9.78 279.85, 0.17 269.58, 0 249.67 M32 281.67 C11.93 283.46, 1.17 270.02, 0 249.67 M0 249.67 C-0.15 178.1, 2.65 103.72, 0 32 M0 249.67 C-1.56 178.23, -0.44 107.45, 0 32 M0 32 C-0.07 11.29, 8.78 -0.43, 32 0 M0 32 C-2.19 11.45, 12.93 -1.4, 32 0" stroke="#1e1e1e" stroke-width="2" fill="none"></path></g><g stroke-linecap="round"><g transform="translate(344.8270045943649 60.19107577098384) rotate(270.2494671377282 103.1877827697839 97.32702730167875)" fill-rule="evenodd"><path d="M1.16 -0.19 L205.55 0.22 L154.68 169.74 L106.9 193.84 L66.53 165.77 L-0.31 1.31" stroke="none" stroke-width="0" fill="#ffc9c9" fill-rule="evenodd"></path><path d="M0 0 C54.5 0.56, 106.62 1.57, 206.38 0.95 M0 0 C42.51 0.92, 83.14 0.27, 206.38 0.95 M206.38 0.95 C191.13 45.63, 175.77 94.93, 153.44 168.44 M206.38 0.95 C186.79 61.25, 167.31 120.58, 153.44 168.44 M153.44 168.44 C133.4 176.86, 115.64 188.1, 105.75 194.65 M153.44 168.44 C137.63 176.96, 122.54 184.68, 105.75 194.65 M105.75 194.65 C93.01 185.03, 83.36 179.48, 66.68 166.6 M105.75 194.65 C94.09 186.83, 83.97 178.02, 66.68 166.6 M66.68 166.6 C45.46 108.15, 20.23 55.02, 0 0 M66.68 166.6 C42.62 101.91, 15.07 36.94, 0 0 M0 0 C0 0, 0 0, 0 0 M0 0 C0 0, 0 0, 0 0" stroke="#000000" stroke-width="1" fill="none"></path></g></g><mask></mask><g transform="translate(41.471118117870446 135.39513701987107) rotate(0 77.41992950439453 12.5)"><text x="0" y="17.52" font-family="Virgil, Segoe UI Emoji" font-size="20px" fill="#1e1e1e" text-anchor="start" style="white-space: pre;" direction="ltr" dominant-baseline="alphabetic">Client Requests</text></g><g stroke-linecap="round"><g transform="translate(220.2645996548598 87.60630214760249) rotate(0 58.73312352185019 0.5290352296083256)"><path d="M-0.56 1.19 C19.13 1.32, 98.37 0.63, 118.08 0.79 M1.34 0.77 C20.94 1.07, 98.17 2.25, 117.46 2.18" stroke="#1e1e1e" stroke-width="1" fill="none"></path></g><g transform="translate(220.2645996548598 87.60630214760249) rotate(0 58.73312352185019 0.5290352296083256)"><path d="M93.91 10.56 C102.83 9.23, 107.33 6.16, 117.46 2.18 M93.91 10.56 C103.33 7.32, 112 4.97, 117.46 2.18" stroke="#1e1e1e" stroke-width="1" fill="none"></path></g><g transform="translate(220.2645996548598 87.60630214760249) rotate(0 58.73312352185019 0.5290352296083256)"><path d="M94.03 -6.54 C102.92 -2.83, 107.38 -0.87, 117.46 2.18 M94.03 -6.54 C103.53 -3.09, 112.15 1.24, 117.46 2.18" stroke="#1e1e1e" stroke-width="1" fill="none"></path></g></g><mask></mask><g stroke-linecap="round"><g transform="translate(542.9522231616837 118.71721424237921) rotate(0 58.73312352185019 0.5290352296083256)"><path d="M-0.96 0.8 C18.6 0.82, 97.91 1.27, 117.46 1.13 M0.74 0.18 C20.12 0.93, 96.85 2.62, 116.52 2.71" stroke="#1e1e1e" stroke-width="2" fill="none"></path></g><g transform="translate(542.9522231616837 118.71721424237921) rotate(0 58.73312352185019 0.5290352296083256)"><path d="M92.9 10.91 C101.53 8.54, 107.69 4.19, 116.52 2.71 M92.9 10.91 C98.55 8.76, 103.34 7.23, 116.52 2.71" stroke="#1e1e1e" stroke-width="2" fill="none"></path></g><g transform="translate(542.9522231616837 118.71721424237921) rotate(0 58.73312352185019 0.5290352296083256)"><path d="M93.15 -6.19 C101.85 -3.23, 107.93 -2.24, 116.52 2.71 M93.15 -6.19 C98.58 -4.78, 103.33 -2.75, 116.52 2.71" stroke="#1e1e1e" stroke-width="2" fill="none"></path></g></g><mask></mask><g stroke-linecap="round"><g transform="translate(219.71901786494516 114.00350982914597) rotate(0 58.73312352185019 0.5290352296083256)"><path d="M1 -0.8 C20.48 -0.41, 96.92 1.3, 116.31 1.68 M0.07 1.39 C19.95 1.48, 99 0.23, 118.41 -0.12" stroke="#1e1e1e" stroke-width="1" fill="none"></path></g><g transform="translate(219.71901786494516 114.00350982914597) rotate(0 58.73312352185019 0.5290352296083256)"><path d="M95.06 8.82 C99.67 4.44, 107.93 3.92, 118.41 -0.12 M95.06 8.82 C102.32 5.59, 111.17 2.88, 118.41 -0.12" stroke="#1e1e1e" stroke-width="1" fill="none"></path></g><g transform="translate(219.71901786494516 114.00350982914597) rotate(0 58.73312352185019 0.5290352296083256)"><path d="M94.79 -8.28 C99.37 -8.35, 107.7 -4.55, 118.41 -0.12 M94.79 -8.28 C102.01 -5.81, 110.95 -2.82, 118.41 -0.12" stroke="#1e1e1e" stroke-width="1" fill="none"></path></g></g><mask></mask><g stroke-linecap="round"><g transform="translate(557.5116605016914 157.1820962885513) rotate(0 58.73312352185019 0.5290352296083256)"><path d="M0.78 -0.35 C20.16 -0.27, 97.63 0.93, 117.26 1.33 M-0.27 -1.58 C18.85 -1.96, 96.44 -0.95, 116.2 -0.65" stroke="#1e1e1e" stroke-width="2" fill="none"></path></g><g transform="translate(557.5116605016914 157.1820962885513) rotate(0 58.73312352185019 0.5290352296083256)"><path d="M92.59 7.59 C100.94 3.95, 110.97 2.92, 116.2 -0.65 M92.59 7.59 C100.89 3.88, 110.11 1.62, 116.2 -0.65" stroke="#1e1e1e" stroke-width="2" fill="none"></path></g><g transform="translate(557.5116605016914 157.1820962885513) rotate(0 58.73312352185019 0.5290352296083256)"><path d="M92.82 -9.51 C101.2 -6.64, 111.15 -1.15, 116.2 -0.65 M92.82 -9.51 C101.06 -6.7, 110.2 -2.44, 116.2 -0.65" stroke="#1e1e1e" stroke-width="2" fill="none"></path></g></g><mask></mask><g stroke-linecap="round"><g transform="translate(543.9408934162212 193.13921728771402) rotate(0 58.73312352185019 0.5290352296083256)"><path d="M-0.49 -0.55 C19.14 -0.14, 98.59 1.45, 118.43 1.83 M1.45 1.78 C20.95 1.9, 98.51 0.45, 117.99 0.11" stroke="#1e1e1e" stroke-width="2" fill="none"></path></g><g transform="translate(543.9408934162212 193.13921728771402) rotate(0 58.73312352185019 0.5290352296083256)"><path d="M94.66 9.08 C102.07 7.6, 112.55 4.63, 117.99 0.11 M94.66 9.08 C102.53 6.19, 111.94 2.39, 117.99 0.11" stroke="#1e1e1e" stroke-width="2" fill="none"></path></g><g transform="translate(543.9408934162212 193.13921728771402) rotate(0 58.73312352185019 0.5290352296083256)"><path d="M94.35 -8.02 C101.79 -3.43, 112.38 -0.33, 117.99 0.11 M94.35 -8.02 C102.3 -4.79, 111.81 -2.48, 117.99 0.11" stroke="#1e1e1e" stroke-width="2" fill="none"></path></g></g><mask></mask><g transform="translate(395.8593585294294 115.61044499675609) rotate(0 38.38688532834419 29.87774566913049)"><text x="0" y="20.93832416492664" font-family="Virgil, Segoe UI Emoji" font-size="23.902196535304387px" fill="#1e1e1e" text-anchor="start" style="white-space: pre;" direction="ltr" dominant-baseline="alphabetic">Rate</text><text x="0" y="50.816069834057124" font-family="Virgil, Segoe UI Emoji" font-size="23.902196535304387px" fill="#1e1e1e" text-anchor="start" style="white-space: pre;" direction="ltr" dominant-baseline="alphabetic">Limiter</text></g><g stroke-linecap="round" transform="translate(698.4511690089067 84.0971032114362) rotate(0 52.076267099866755 72.83324008550494)"><path d="M26.04 0 C39.3 -2.59, 51.32 4.04, 78.11 0 C95.84 -1.04, 104.91 7.08, 104.15 26.04 C105.62 48.25, 105.02 71.56, 104.15 119.63 C103.04 133.51, 96.8 142.42, 78.11 145.67 C66 142.73, 55.85 146.51, 26.04 145.67 C10.78 145.16, 1.19 137.49, 0 119.63 C-0.87 101.86, -1.09 77.28, 0 26.04 C3.46 5.35, 6.64 -2.3, 26.04 0" stroke="none" stroke-width="0" fill="#b2f2bb"></path><path d="M26.04 0 C45.38 1.3, 65.75 0.08, 78.11 0 M26.04 0 C43.21 0.65, 59.06 0.97, 78.11 0 M78.11 0 C95.3 -1.21, 104.47 6.77, 104.15 26.04 M78.11 0 C97.42 2.08, 101.9 8.53, 104.15 26.04 M104.15 26.04 C103.06 55.46, 103.84 83.59, 104.15 119.63 M104.15 26.04 C103.54 60.27, 104.7 95.5, 104.15 119.63 M104.15 119.63 C105.18 135.4, 95.09 145.75, 78.11 145.67 M104.15 119.63 C101.98 134.72, 94.45 144.96, 78.11 145.67 M78.11 145.67 C68.1 144.42, 55.61 146.43, 26.04 145.67 M78.11 145.67 C62.6 145.32, 46.09 145.81, 26.04 145.67 M26.04 145.67 C7.3 144.64, -1.68 136.24, 0 119.63 M26.04 145.67 C8.53 144.12, 1.2 139.12, 0 119.63 M0 119.63 C-2.26 96.93, -0.69 77.59, 0 26.04 M0 119.63 C1.16 86.37, -0.16 52.14, 0 26.04 M0 26.04 C1.52 7.88, 7.9 -1.58, 26.04 0 M0 26.04 C-0.94 8.72, 7.62 0.66, 26.04 0" stroke="#1e1e1e" stroke-width="2" fill="none"></path></g><g transform="translate(720.3274696781094 144.43034329694137) rotate(0 30.199966430664062 12.5)"><text x="30.199966430664062" y="17.52" font-family="Virgil, Segoe UI Emoji" font-size="20px" fill="#1e1e1e" text-anchor="middle" style="white-space: pre;" direction="ltr" dominant-baseline="alphabetic">server</text></g><g stroke-linecap="round"><g transform="translate(218.1123365397566 142.45595790250763) rotate(0 58.73312352185019 0.5290352296083256)"><path d="M-0.75 -0.51 C18.67 -0.4, 96.73 1.08, 116.52 1.32 M1.05 -1.82 C20.85 -2.15, 99.33 -1.33, 118.73 -0.67" stroke="#1e1e1e" stroke-width="1" fill="none"></path></g><g transform="translate(218.1123365397566 142.45595790250763) rotate(0 58.73312352185019 0.5290352296083256)"><path d="M95.07 7.41 C101.18 3.59, 109.47 3.56, 118.73 -0.67 M95.07 7.41 C102.04 5.88, 109.33 3.08, 118.73 -0.67" stroke="#1e1e1e" stroke-width="1" fill="none"></path></g><g transform="translate(218.1123365397566 142.45595790250763) rotate(0 58.73312352185019 0.5290352296083256)"><path d="M95.41 -9.68 C101.52 -8.45, 109.7 -3.42, 118.73 -0.67 M95.41 -9.68 C102.35 -6.32, 109.54 -4.22, 118.73 -0.67" stroke="#1e1e1e" stroke-width="1" fill="none"></path></g></g><mask></mask><g stroke-linecap="round"><g transform="translate(217.56675474984195 169.110534074131) rotate(0 58.73312352185019 0.5290352296083256)"><path d="M-0.95 0.26 C18.83 0.49, 98.12 0.67, 117.93 0.9 M0.75 -0.65 C20.48 -0.18, 97.79 2.32, 117.23 2.35" stroke="#1e1e1e" stroke-width="1" fill="none"></path></g><g transform="translate(217.56675474984195 169.110534074131) rotate(0 58.73312352185019 0.5290352296083256)"><path d="M93.58 10.45 C99.66 9.5, 104.56 7.54, 117.23 2.35 M93.58 10.45 C102.48 7.84, 109.43 3.68, 117.23 2.35" stroke="#1e1e1e" stroke-width="1" fill="none"></path></g><g transform="translate(217.56675474984195 169.110534074131) rotate(0 58.73312352185019 0.5290352296083256)"><path d="M93.91 -6.65 C99.84 -3.55, 104.66 -1.45, 117.23 2.35 M93.91 -6.65 C102.73 -3.34, 109.56 -1.59, 117.23 2.35" stroke="#1e1e1e" stroke-width="1" fill="none"></path></g></g><mask></mask><g stroke-linecap="round"><g transform="translate(215.15055629677522 196.22963147266228) rotate(0 58.73312352185019 0.5290352296083256)"><path d="M-1 0.05 C18.79 0.28, 97.74 0.35, 117.61 0.53 M0.67 -0.97 C20.42 -0.5, 97.21 1.21, 116.73 1.78" stroke="#1e1e1e" stroke-width="1" fill="none"></path></g><g transform="translate(215.15055629677522 196.22963147266228) rotate(0 58.73312352185019 0.5290352296083256)"><path d="M93.03 9.74 C97.98 8.56, 101.83 7.91, 116.73 1.78 M93.03 9.74 C101.14 8.16, 106.57 4.92, 116.73 1.78" stroke="#1e1e1e" stroke-width="1" fill="none"></path></g><g transform="translate(215.15055629677522 196.22963147266228) rotate(0 58.73312352185019 0.5290352296083256)"><path d="M93.47 -7.36 C98.2 -5.07, 101.96 -2.24, 116.73 1.78 M93.47 -7.36 C101.34 -3.73, 106.64 -1.75, 116.73 1.78" stroke="#1e1e1e" stroke-width="1" fill="none"></path></g></g><mask></mask><g stroke-linecap="round"><g transform="translate(214.60497450686057 222.62683915420575) rotate(0 58.73312352185019 0.5290352296083256)"><path d="M0.14 -0.53 C20.01 -0.35, 98.75 0.78, 118.19 1.11 M-1.24 1.8 C18.61 2.19, 97.53 3.09, 117.62 2.68" stroke="#1e1e1e" stroke-width="1" fill="none"></path></g><g transform="translate(214.60497450686057 222.62683915420575) rotate(0 58.73312352185019 0.5290352296083256)"><path d="M94.15 11.28 C98.34 10.6, 104.4 6.36, 117.62 2.68 M94.15 11.28 C100.95 8.31, 109.25 4.38, 117.62 2.68" stroke="#1e1e1e" stroke-width="1" fill="none"></path></g><g transform="translate(214.60497450686057 222.62683915420575) rotate(0 58.73312352185019 0.5290352296083256)"><path d="M94.11 -5.82 C98.32 -2.8, 104.39 -3.33, 117.62 2.68 M94.11 -5.82 C101.07 -3.09, 109.39 -1.32, 117.62 2.68" stroke="#1e1e1e" stroke-width="1" fill="none"></path></g></g><mask></mask></svg>