<?xml version="1.0" standalone="no"?>
<!DOCTYPE svg PUBLIC "-//W3C//DTD SVG 20010904//EN"
 "http://www.w3.org/TR/2001/REC-SVG-20010904/DTD/svg10.dtd">
<svg version="1.0" xmlns="http://www.w3.org/2000/svg"
 width="700.000000pt" height="700.000000pt" viewBox="0 0 700.000000 700.000000"
 preserveAspectRatio="xMidYMid meet">
<metadata>
Created by potrace 1.14, written by Peter Selinger 2001-2017
</metadata>
<g transform="translate(0.000000,700.000000) scale(0.100000,-0.100000)"
fill="#000000" stroke="none">
<path d="M3904 6991 c-24 -11 -14 2 -326 -406 -138 -182 -292 -384 -343 -450
-130 -170 -542 -710 -793 -1040 -117 -154 -218 -287 -225 -295 -7 -8 -26 -33
-42 -55 -16 -22 -32 -42 -35 -45 -3 -3 -45 -59 -95 -125 -49 -66 -92 -122 -95
-125 -3 -3 -24 -30 -46 -60 -58 -77 -253 -332 -268 -350 -6 -9 -32 -42 -56
-75 -25 -33 -50 -66 -57 -75 -77 -96 -78 -98 -75 -159 1 -13 8 -34 17 -47 11
-17 306 -170 963 -499 l947 -474 -1230 0 c-1215 -1 -1230 -1 -1263 -21 -38
-23 -62 -71 -55 -110 2 -15 103 -211 224 -436 281 -520 262 -484 247 -488 -7
-2 -56 -14 -108 -26 -99 -23 -308 -87 -325 -99 -5 -4 -32 -16 -60 -26 -173
-63 -483 -251 -515 -313 -25 -46 -9 -104 36 -139 49 -37 100 -29 184 29 97 68
218 134 340 188 110 49 298 114 360 125 18 3 36 8 40 10 15 9 225 43 335 54
88 9 425 7 475 -2 14 -3 50 -8 80 -12 171 -20 339 -57 550 -122 79 -24 239
-81 285 -102 422 -190 817 -337 1144 -427 182 -50 504 -116 651 -134 52 -6
109 -13 125 -15 222 -33 728 -22 946 20 13 3 41 7 64 11 270 39 753 217 798
293 35 60 13 136 -48 165 -45 22 -70 17 -188 -39 -51 -24 -112 -51 -137 -60
-60 -22 -221 -75 -241 -80 -8 -2 -44 -10 -80 -18 -89 -21 -157 -35 -204 -42
-143 -20 -180 -25 -265 -31 -89 -6 -227 -8 -382 -5 l-68 1 24 43 c83 149 139
250 211 382 45 83 95 173 110 200 128 232 197 358 292 530 187 338 213 387
213 396 0 5 3 9 8 9 4 0 24 36 46 80 30 63 37 86 32 112 -8 41 -35 74 -71 88
-17 6 -352 10 -956 10 l-929 0 0 2096 c0 2275 3 2138 -52 2173 -28 17 -86 23
-114 12z"/>
<path d="M1628 1075 c-2 -1 -37 -5 -78 -9 -361 -28 -743 -152 -1065 -346 -49
-29 -92 -56 -95 -60 -3 -3 -21 -16 -42 -28 -46 -28 -80 -92 -68 -130 14 -49
20 -58 48 -74 61 -36 83 -31 199 44 211 136 484 254 713 308 117 27 115 27
180 35 29 4 62 9 74 11 109 22 509 22 632 0 10 -2 42 -7 69 -10 28 -4 84 -14
125 -22 41 -9 86 -18 100 -20 184 -34 544 -163 875 -314 87 -40 388 -153 525
-198 222 -73 493 -146 655 -176 120 -23 263 -46 317 -52 34 -3 65 -8 68 -9 3
-2 55 -7 115 -12 203 -15 637 -8 740 11 11 2 45 7 75 11 30 4 64 9 75 11 11 3
36 7 55 10 272 41 746 219 785 293 33 65 8 140 -54 165 -43 17 -70 13 -136
-21 -120 -61 -361 -148 -495 -179 -242 -56 -477 -81 -737 -78 -93 0 -202 4
-243 8 -41 4 -97 9 -125 12 -420 40 -1058 212 -1480 399 -471 210 -828 331
-1105 375 -36 5 -74 12 -85 14 -12 2 -48 7 -80 11 -33 4 -71 9 -85 12 -27 5
-447 13 -452 8z"/>
</g>
</svg>
